# Blender v2.83.2 OBJ File: 'pointer.blend'
# www.blender.org
mtllib pointer.mtl
o Cube
v 0.000370 0.004506 -0.892854
v 0.005452 -0.465893 -0.482102
v 0.851585 0.058734 -0.646414
v 0.647780 -0.174090 0.348194
v -0.850164 0.060582 -0.647060
v -0.644609 -0.182523 0.349118
v 0.046620 0.098026 -0.282108
v 0.001415 -0.006847 1.595441
vt 0.235667 0.000000
vt 0.500928 0.027418
vt 0.259040 0.247657
vt 0.000000 0.168574
vt 0.120409 0.555171
vt 0.386237 1.000000
vt 0.500928 0.448702
vt 0.620913 0.527874
vt 0.753922 0.119872
vt 1.000000 0.412052
vt 0.892774 0.972532
vt 0.733763 0.000000
vt 1.000000 0.024558
vt 0.500928 0.177449
vn 0.0011 0.9885 -0.1514
vn 0.2863 0.9484 0.1363
vn -0.2682 0.9545 0.1305
vn 0.0065 -0.9764 0.2158
vn 0.4436 -0.8250 -0.3501
vn -0.4401 -0.8257 -0.3529
usemtl Material
s off
f 1/1/1 5/2/1 7/3/1 3/4/1
f 4/5/2 3/4/2 7/3/2 8/6/2
f 8/6/3 7/3/3 5/2/3 6/7/3
f 6/8/4 2/9/4 4/10/4 8/11/4
f 2/9/5 1/12/5 3/13/5 4/10/5
f 6/8/6 5/14/6 1/12/6 2/9/6
